<?xml version="1.0" encoding="UTF-8"?>
<svg width="13" height="13" viewBox="0 0 13 13" xmlns="http://www.w3.org/2000/svg">
  <defs>
    <linearGradient id="toolGradient" x1="0%" y1="0%" x2="100%" y2="100%">
      <stop offset="0%" style="stop-color:#4CAF50;stop-opacity:1" />
      <stop offset="100%" style="stop-color:#2E7D32;stop-opacity:1" />
    </linearGradient>
  </defs>
  
  <!-- 背景 -->
  <rect x="0.5" y="0.5" width="12" height="12" rx="2" fill="url(#toolGradient)" stroke="#1B5E20" stroke-width="0.5"/>
  
  <!-- 批处理流程 -->
  <!-- 处理块1 -->
  <rect x="2" y="3" width="2.5" height="2" rx="0.3" fill="white" opacity="0.9"/>
  <rect x="2.2" y="3.3" width="2" height="0.3" fill="#2E7D32"/>
  <rect x="2.2" y="4.2" width="1.5" height="0.3" fill="#2E7D32"/>
  
  <!-- 箭头 -->
  <path d="M 4.8 4 L 5.8 4 L 5.5 3.5 M 5.8 4 L 5.5 4.5" stroke="#FFC107" stroke-width="0.4" fill="none"/>
  
  <!-- 处理块2 -->
  <rect x="6.2" y="3" width="2.5" height="2" rx="0.3" fill="white" opacity="0.9"/>
  <rect x="6.4" y="3.3" width="2" height="0.3" fill="#2E7D32"/>
  <rect x="6.4" y="4.2" width="1.5" height="0.3" fill="#2E7D32"/>
  
  <!-- 箭头 -->
  <path d="M 9 4 L 10 4 L 9.7 3.5 M 10 4 L 9.7 4.5" stroke="#FFC107" stroke-width="0.4" fill="none"/>
  
  <!-- 结果块 -->
  <rect x="10.2" y="3" width="1.5" height="2" rx="0.3" fill="white" opacity="0.9"/>
  <circle cx="11" cy="4" r="0.4" fill="#4CAF50"/>
  
  <!-- 监控指示器 -->
  <circle cx="6.5" cy="8.5" r="2" fill="white" opacity="0.1" stroke="white" stroke-width="0.3"/>
  <circle cx="6.5" cy="8.5" r="1" fill="none" stroke="white" stroke-width="0.4"/>
  <circle cx="6.5" cy="8.5" r="0.3" fill="white"/>
  
  <!-- 数据流 -->
  <path d="M 2.5 6.5 Q 6.5 7.5 10.5 6.5" stroke="white" stroke-width="0.3" fill="none" opacity="0.6"/>
</svg>
